<svg width="859" height="523" viewBox="0 0 859 523" fill="none" xmlns="http://www.w3.org/2000/svg">
<g clip-path="url(#clip0_360_3547)">
<path d="M71.6402 295.96C72.3002 299.71 72.5302 302.17 73.1702 304.51C94.2702 381.24 141.93 430.69 219.46 448.89C230.92 451.58 242.9 452.88 254.68 453.12C291.54 453.859 328.24 452.389 364.22 442.799C404 432.199 440.55 415.599 470.42 386.109C470.8 385.74 471.53 385.74 473.36 385.18C482.21 407 491.1 428.95 500.35 451.76C494.62 456 489.25 460.21 483.65 464.09C448.14 488.69 408.61 503.49 366.76 512.38C326.85 520.859 286.36 523.65 245.78 521.5C159.75 516.96 92.0302 478.31 43.2802 406.549C20.1002 372.43 7.31018 334.14 2.20018 293.16C-4.58982 238.68 4.24018 186.81 29.8302 138.5C67.9802 66.5295 126.61 20.3495 206.3 5.13951C276.43 -8.24049 342.33 3.86951 400.2 48.7095C427.18 69.6095 447.47 96.3795 461.99 127.19C477.26 159.58 491.49 192.49 505.47 225.48C519.45 258.479 532.67 291.81 546.03 325.07C557.63 353.96 568.88 382.99 580.47 411.88C583.27 418.87 586.32 425.84 590.05 432.359C606.02 460.259 642.38 461.13 659.08 433.64C665.22 423.53 669.37 412.13 674 401.14C709.76 316.25 745.5 231.35 780.96 146.34C784.55 137.73 787.41 128.49 788.67 119.27C791.32 99.9195 781.99 82.7795 765.74 74.3895C748.67 65.5695 727.94 67.6495 713.9 79.7195C707.4 85.3095 702.51 92.0895 699.02 100.05C677.54 149 656.23 198.02 634.26 246.74C618.63 281.41 602.07 315.66 585.88 350.07C584.97 352 583.71 353.77 581.99 356.65C580.59 354.1 579.45 352.45 578.71 350.63C569.12 327.03 559.72 303.359 549.95 279.84C547.97 275.07 548.14 271.13 550.23 266.49C567.78 227.51 585.15 188.45 602.54 149.39C613.15 125.55 623.65 101.66 634.31 77.8395C643.53 57.2395 655.21 38.4595 673.16 24.2495C731 -21.5405 829.38 -0.83049 853.51 84.1495C860.18 107.64 859.56 131.12 850.85 153.76C838.55 185.75 825.34 217.38 812.18 249.03C793.83 293.16 775.17 337.15 756.66 381.22C747.05 404.12 737.9 427.22 727.8 449.9C715.72 477.039 698.61 500.369 670.53 512.039C629.63 529.049 590.44 525.729 555.48 496.63C539.11 483 527.67 465.229 519.7 445.359C500.29 396.909 481.11 348.37 461.64 299.94C447.1 263.77 432.82 227.47 417.32 191.71C409.6 173.89 400.53 156.43 390.12 140.08C357.82 89.3395 309.9 69.0095 251.6 69.3395C175.69 69.7595 102.1 121.44 77.4302 204.06C75.3802 210.92 73.8202 217.93 71.7802 225.87C75.4402 226.12 78.1002 226.46 80.7602 226.46C167.48 226.42 254.21 226.35 340.93 226.3C344.36 226.3 347.8 226.27 351.22 226.44C369.01 227.33 382.45 241.53 382.85 259.81C383.28 279.4 370.48 294.65 351.91 295.63C338.53 296.33 325.09 296.01 311.68 296.01C235.25 296.01 158.82 295.99 82.3902 295.97C79.0502 295.97 75.7102 295.97 71.6102 295.97L71.6402 295.96Z" fill="#1A1A1A"/>
</g>
<defs>
<clipPath id="clip0_360_3547">
<rect width="858.02" height="522.35" fill="white"/>
</clipPath>
</defs>
</svg>
