<svg width="807" height="234" viewBox="0 0 807 234" fill="none" xmlns="http://www.w3.org/2000/svg">
<g clip-path="url(#clip0_360_3493)">
<path d="M37.1793 132.471C37.4793 134.151 37.5793 135.251 37.8693 136.301C47.4093 170.641 68.9693 192.781 104.039 200.921C109.219 202.121 114.639 202.711 119.969 202.811C136.639 203.141 153.239 202.481 169.509 198.191C187.499 193.441 204.039 186.011 217.539 172.821C217.709 172.651 218.039 172.651 218.869 172.411C222.869 182.181 226.889 192.001 231.079 202.211C228.489 204.111 226.059 205.991 223.529 207.731C207.469 218.741 189.589 225.361 170.659 229.351C152.609 233.151 134.299 234.391 115.939 233.431C77.0293 231.401 46.3993 214.101 24.3493 181.981C13.8693 166.711 8.07928 149.571 5.76928 131.231C2.69928 106.851 6.68929 83.631 18.2693 62.001C35.5193 29.781 62.0393 9.11096 98.0893 2.30096C129.809 -3.68904 159.619 1.73096 185.789 21.801C197.989 31.161 207.169 43.141 213.739 56.931C220.649 71.431 227.079 86.161 233.409 100.921C239.739 115.691 245.709 130.611 251.759 145.501C257.009 158.431 262.099 171.421 267.339 184.361C268.609 187.491 269.979 190.611 271.669 193.531C278.889 206.021 295.339 206.411 302.889 194.101C305.669 189.571 307.539 184.471 309.639 179.551C325.809 141.551 341.979 103.551 358.019 65.501C359.639 61.651 360.939 57.511 361.509 53.381C362.709 44.721 358.489 37.051 351.139 33.291C343.419 29.341 334.039 30.271 327.689 35.681C324.749 38.181 322.539 41.221 320.959 44.781C311.249 66.691 301.599 88.631 291.669 110.441C284.599 125.961 277.109 141.291 269.789 156.691C269.379 157.561 268.809 158.351 268.029 159.641C267.389 158.501 266.879 157.761 266.549 156.951C262.209 146.391 257.959 135.791 253.539 125.271C252.639 123.131 252.719 121.371 253.669 119.291C261.609 101.841 269.459 84.361 277.329 66.881C282.129 56.211 286.879 45.511 291.699 34.851C295.869 25.631 301.149 17.221 309.269 10.861C335.429 -9.62904 379.929 -0.359035 390.839 37.671C393.859 48.181 393.579 58.691 389.639 68.831C384.079 83.151 378.099 97.311 372.149 111.471C363.849 131.221 355.409 150.911 347.039 170.641C342.689 180.891 338.549 191.231 333.989 201.381C328.529 213.531 320.789 223.971 308.089 229.191C289.589 236.801 271.869 235.321 256.049 222.291C248.639 216.191 243.469 208.241 239.869 199.341C231.089 177.651 222.419 155.931 213.609 134.251C207.029 118.061 200.569 101.811 193.559 85.811C190.069 77.831 185.959 70.021 181.259 62.701C166.649 39.991 144.979 30.891 118.609 31.041C84.2793 31.231 50.9893 54.361 39.8293 91.341C38.8993 94.411 38.1993 97.551 37.2793 101.101C38.9393 101.211 40.1393 101.361 41.3393 101.361C80.5693 101.341 119.789 101.311 159.019 101.291C160.569 101.291 162.129 101.271 163.679 101.351C171.729 101.751 177.809 108.111 177.989 116.291C178.179 125.061 172.389 131.881 163.999 132.321C157.949 132.631 151.869 132.491 145.799 132.491C111.229 132.491 76.6593 132.491 42.0893 132.471C40.5793 132.471 39.0693 132.471 37.2093 132.471H37.1793Z" fill="#1A1A1A"/>
<path d="M538.279 93.8805C531.929 103.28 520.109 103.99 513.639 94.9405C504.239 103.61 492.979 103.59 484.219 94.1605C477.989 102.31 470.069 102.77 460.869 98.6605C460.269 100.93 459.709 103.06 459.139 105.19C457.769 110.34 455.379 114.94 451.529 118.66C446.409 123.61 440.239 124.72 433.539 122.86C431.809 122.38 429.749 121.41 428.859 120.02C427.879 118.5 427.399 115.99 427.979 114.35C428.399 113.16 430.819 112.5 432.459 111.97C433.359 111.68 434.499 112.24 435.539 112.31C442.759 112.77 447.919 109.36 450.489 102.5C452.239 97.8305 452.129 93.0705 451.059 88.3105C450.369 85.2605 449.319 82.2905 448.599 79.2505C448.169 77.4505 447.439 75.3505 447.979 73.7805C448.549 72.1005 450.209 70.3505 451.839 69.5905C453.899 68.6305 455.949 69.6905 456.959 71.9205C457.649 73.4405 458.219 75.0105 458.749 76.5905C459.339 78.3705 459.729 80.2205 460.369 81.9805C462.529 87.9305 465.989 90.7405 470.629 90.4405C475.759 90.1005 479.329 86.2205 480.399 79.8305C480.849 77.1605 481.139 74.4505 481.759 71.8205C482.359 69.2905 484.079 67.9305 486.799 68.1305C489.749 68.3405 490.649 70.2805 490.629 72.8605C490.609 75.5705 490.369 78.2905 490.419 81.0005C490.509 86.2705 492.719 89.0805 497.299 89.9805C502.609 91.0205 506.799 89.2005 508.789 84.7105C509.619 82.8305 509.959 80.7205 510.479 78.7005C510.789 77.4905 510.829 76.1805 511.329 75.0705C512.299 72.9405 514.129 71.9505 516.439 72.4205C518.509 72.8405 519.649 74.2405 519.639 76.4405C519.639 78.7405 519.509 81.0405 519.649 83.3305C519.899 87.1805 521.819 89.7005 524.769 90.3505C527.439 90.9405 530.559 89.1305 532.169 85.7405C532.869 84.2705 533.149 82.5805 533.449 80.9505C533.799 79.1105 533.889 77.2105 534.219 75.3705C534.699 72.6605 536.479 71.4305 539.139 71.6705C541.519 71.8905 542.969 73.2905 543.059 75.7505C543.149 78.2505 542.869 80.7905 543.179 83.2605C543.399 85.0305 543.829 87.2705 545.029 88.3105C546.609 89.6705 549.029 90.7205 551.079 90.7105C553.699 90.7005 554.929 88.1405 554.989 85.7805C555.069 82.4905 554.669 79.1605 554.239 75.8805C554.029 74.2505 553.229 72.7005 552.789 71.0905C551.799 67.4205 552.729 65.2405 555.769 63.9505C558.619 62.7405 561.039 63.7805 562.469 67.6205C563.689 70.9005 564.649 74.4405 564.839 77.9105C565.069 82.0205 565.009 86.3605 563.939 90.2905C560.839 101.62 549.199 104.87 540.329 97.1605C539.569 96.5005 539.199 95.4005 538.259 93.8905L538.279 93.8805Z" fill="#1A1A1A"/>
<path d="M649.659 101.091C649.129 102.041 648.949 102.201 648.949 102.381C648.749 114.041 645.679 118.331 634.609 121.981C624.569 125.291 614.579 125.731 604.659 121.321C597.569 118.171 593.599 112.671 592.009 105.281C590.599 98.731 591.569 92.381 594.099 86.281C594.799 84.591 595.839 82.771 597.249 81.741C598.379 80.921 600.629 80.611 601.799 81.211C602.879 81.771 603.819 83.891 603.699 85.221C603.429 88.101 602.319 90.881 601.769 93.751C599.759 104.221 604.159 110.951 614.559 112.921C621.939 114.321 629.139 113.401 635.869 109.901C637.919 108.831 640.399 107.391 639.559 104.811C639.039 103.201 636.899 101.831 635.169 100.981C632.959 99.881 630.359 99.581 628.059 98.621C624.609 97.181 623.429 94.771 624.349 91.751C625.389 88.311 627.669 86.901 631.599 87.931C643.559 91.061 655.669 89.981 667.769 89.571C669.819 89.501 671.909 88.961 673.889 88.351C676.969 87.391 678.689 85.251 678.849 81.191C677.019 81.871 675.639 82.521 674.189 82.891C668.059 84.481 661.989 84.631 657.119 79.921C652.309 75.281 651.649 69.391 653.319 63.091C656.149 52.461 664.899 46.711 674.299 49.241C678.409 50.351 681.369 52.911 683.429 56.401C689.409 66.531 690.169 77.361 686.709 88.411C684.809 94.481 679.949 98.041 673.959 99.351C668.909 100.461 663.639 100.661 658.449 101.051C655.379 101.281 652.269 101.091 649.649 101.091H649.659ZM677.239 72.031C677.789 67.541 676.599 64.321 674.189 61.601C672.139 59.291 668.869 58.881 666.219 60.281C663.249 61.851 661.359 66.101 662.239 69.311C663.089 72.421 665.439 73.651 668.359 73.451C671.359 73.241 674.319 72.511 677.249 72.021L677.239 72.031Z" fill="#1A1A1A"/>
<path d="M765.36 93.3606C762.47 92.5506 759.37 91.6606 756.25 90.8306C753.03 89.9706 749.72 89.3906 746.6 88.2806C742.26 86.7406 739.88 83.3106 739.44 78.8306C738.17 66.0606 749.58 51.6206 764.21 54.2606C767.48 54.8506 770.71 56.9406 773.42 59.0206C776 61.0006 775.95 64.1106 774.15 66.2606C772.15 68.6606 769.95 68.2106 767.44 66.9406C760.77 63.5706 756.49 63.9706 752.11 68.4106C750.84 69.7006 749.74 71.3906 749.17 73.1006C748.01 76.5706 749.21 78.6906 752.82 79.6206C756.65 80.6106 760.6 81.1406 764.45 82.0706C774.99 84.6206 778.58 93.3706 772.96 102.701C770.63 106.571 767.3 109.391 763.26 111.311C752.79 116.291 741.98 117.161 731.02 113.291C718.66 108.931 712.61 97.2206 715.57 83.4806C716.22 80.4606 717.4 77.4806 718.83 74.7406C720.25 72.0206 722.93 71.2706 725.14 72.4906C727.61 73.8606 727.52 75.7906 726.84 78.3706C725.84 82.1606 725.14 86.1206 725.04 90.0206C724.91 95.5106 727.75 99.6906 732.7 101.971C742.55 106.511 752.23 105.261 761.52 100.221C763.69 99.0506 765.63 97.2806 765.35 93.3506L765.36 93.3606Z" fill="#1A1A1A"/>
<path d="M731.649 194.23H721.679C721.679 198.95 721.719 203.27 721.659 207.6C721.629 209.68 721.949 212 721.139 213.76C720.399 215.37 718.529 216.97 716.819 217.52C714.569 218.24 712.829 216.48 712.089 214.37C711.559 212.84 711.399 211.11 711.399 209.47C711.429 196.33 711.519 183.19 711.649 170.05C711.669 168.22 711.879 166.87 710.099 165.2C707.079 162.36 707.949 158.65 711.849 157.35C721.929 153.99 732.369 152.65 742.499 156.56C754.039 161.02 757.049 176.39 748.619 185.87C746.709 188.01 744.319 189.73 741.909 191.85C745.319 197.02 748.819 202.17 752.129 207.43C753.089 208.96 754.109 210.83 754.049 212.5C753.999 214.08 752.899 216.47 751.659 216.96C750.049 217.59 747.619 217.12 745.959 216.3C744.649 215.65 743.879 213.78 742.999 212.38C739.109 206.22 735.269 200.04 731.629 194.21L731.649 194.23ZM721.649 184.52C727.279 185.38 731.989 185.22 736.489 183.27C741.109 181.27 743.559 177.03 743.019 172.32C742.489 167.68 738.999 164.24 733.819 163.67C731.149 163.38 728.429 163.62 725.729 163.64C722.929 163.66 721.589 165.02 721.629 167.89C721.699 173.26 721.649 178.64 721.649 184.53V184.52Z" fill="#1A1A1A"/>
<path d="M636.08 190.08H611.09C611.09 196.13 611.09 201.7 611.09 207.26C611.09 209.14 611.26 211.04 611.04 212.89C610.69 215.91 608.83 217.65 606.2 217.61C603.22 217.57 601.65 215.83 601.19 213.02C601.02 212 601 210.94 601 209.9C601 194.03 601 178.17 601.02 162.3C601.02 161.26 601.02 160.19 601.22 159.18C601.89 155.82 603.9 154.1 606.76 154.45C609.84 154.82 610.96 156.87 610.97 159.7C610.99 164.29 610.94 168.89 610.93 173.48C610.93 175.72 610.93 177.96 610.93 181.01C619.51 180.64 627.35 180.3 636.11 179.92C636.11 175.22 636.08 170.7 636.12 166.19C636.14 163.69 635.97 161.13 636.42 158.7C636.91 156.05 638.67 154.03 641.62 154.23C644.48 154.43 646.06 156.31 646.21 159.24C646.27 160.49 646.32 161.74 646.32 163C646.34 178.24 646.36 193.48 646.37 208.72C646.37 209.97 646.41 211.24 646.24 212.47C645.75 216.03 644.05 217.7 641.15 217.67C638.21 217.64 636.45 215.96 636.23 212.39C636 208.64 636.11 204.88 636.1 201.12C636.09 197.6 636.1 194.07 636.1 190.07L636.08 190.08Z" fill="#1A1A1A"/>
<path d="M689.689 200.211C681.989 200.651 674.929 201.041 667.439 201.471C666.269 204.981 665.119 208.521 663.889 212.041C663.419 213.401 663.149 215.301 662.149 215.911C660.549 216.891 658.249 217.681 656.559 217.261C655.289 216.951 654.039 214.751 653.639 213.171C653.269 211.691 653.799 209.851 654.319 208.301C659.239 193.661 664.199 179.031 669.269 164.451C670.079 162.111 671.209 159.781 672.649 157.771C676.069 152.981 681.799 153.001 685.169 157.801C686.589 159.831 687.779 162.121 688.589 164.461C693.429 178.471 698.149 192.521 702.849 206.571C703.439 208.341 703.849 210.201 704.089 212.051C704.449 214.911 703.339 216.961 700.319 217.571C697.459 218.151 695.329 217.051 694.259 214.381C693.249 211.871 692.519 209.241 691.689 206.661C691.059 204.681 690.469 202.691 689.709 200.231L689.689 200.211ZM686.569 191.131C685.259 181.641 681.289 170.461 677.839 167.091C675.329 175.211 672.909 183.051 670.409 191.131H686.579H686.569Z" fill="#1A1A1A"/>
<path d="M442.349 190.062V207.852C448.259 207.532 453.609 207.272 458.959 206.942C461.249 206.802 463.529 206.312 465.819 206.312C469.009 206.312 470.879 207.922 471.119 210.462C471.369 213.182 469.579 215.472 466.139 215.812C459.899 216.422 453.629 216.692 447.369 216.992C445.079 217.102 442.759 217.022 440.489 216.762C434.409 216.072 432.049 213.592 431.859 207.402C431.679 201.352 431.699 195.282 431.809 189.222C431.959 180.652 432.199 172.092 432.549 163.532C432.769 158.062 434.149 156.382 439.599 155.952C447.719 155.312 455.869 155.122 463.999 154.772C464.819 154.732 465.689 154.812 466.479 155.042C468.779 155.692 469.999 157.422 469.949 159.682C469.899 162.062 468.369 163.502 465.969 163.702C463.889 163.872 461.789 163.812 459.699 163.892C454.289 164.102 448.869 164.322 442.819 164.562V181.082C446.779 181.082 451.069 181.082 455.369 181.082C457.459 181.082 459.549 181.002 461.639 181.082C464.049 181.182 465.629 182.492 465.829 184.902C466.049 187.612 464.479 189.362 461.919 189.692C459.029 190.072 456.079 190.002 453.159 190.042C449.829 190.092 446.499 190.052 442.359 190.052L442.349 190.062Z" fill="#1A1A1A"/>
<path d="M571.859 218.071C565.269 217.891 560.189 216.791 555.759 213.741C553.889 212.461 552.139 210.881 550.709 209.121C548.279 206.121 548.319 202.361 550.459 200.621C552.399 199.051 555.429 199.641 558.099 202.641C561.969 206.991 566.529 209.461 572.429 208.681C574.239 208.441 576.139 207.871 577.699 206.951C583.259 203.641 583.469 197.231 578.049 193.711C575.629 192.141 572.809 191.171 570.129 190.031C566.679 188.561 563.019 187.511 559.739 185.731C548.399 179.591 547.819 164.281 558.859 157.541C567.169 152.471 575.919 152.611 584.419 157.561C585.659 158.281 586.789 159.301 587.769 160.361C590.089 162.891 590.479 165.891 588.889 167.691C587.259 169.521 584.719 169.511 581.679 167.011C578.229 164.171 574.469 162.971 570.079 163.431C565.369 163.921 562.109 166.541 561.529 170.361C561.029 173.681 562.809 176.481 567.009 178.571C568.869 179.491 570.889 180.081 572.829 180.841C575.939 182.051 579.119 183.101 582.119 184.541C589.639 188.151 592.859 193.831 592.089 201.601C591.349 209.031 586.589 214.841 579.229 216.881C576.439 217.651 573.489 217.821 571.839 218.071H571.859Z" fill="#1A1A1A"/>
<path d="M773.749 164.741V181.141C778.159 181.141 782.669 181.141 787.179 181.141C789.059 181.141 790.949 181.011 792.809 181.201C795.089 181.431 796.789 182.541 796.829 185.131C796.869 187.561 795.449 189.081 793.249 189.641C791.659 190.041 789.939 189.971 788.279 190.021C783.529 190.171 778.779 190.271 773.609 190.401V207.741C779.469 207.441 784.809 207.191 790.139 206.871C792.639 206.721 795.119 206.341 797.619 206.251C800.349 206.151 801.989 207.621 802.169 210.321C802.349 212.951 801.069 214.691 798.389 215.241C798.189 215.281 797.979 215.351 797.779 215.361C789.039 215.831 780.299 216.701 771.569 216.621C765.379 216.561 763.029 213.691 763.039 207.421C763.059 192.611 763.279 177.801 763.549 162.991C763.639 158.311 765.129 156.301 769.779 155.931C778.499 155.231 787.269 155.021 796.019 154.891C799.459 154.841 801.639 157.021 801.339 159.661C800.999 162.701 798.889 163.771 796.049 163.791C792.499 163.821 788.949 163.791 785.409 163.951C781.689 164.111 777.989 164.451 773.749 164.741Z" fill="#1A1A1A"/>
<path d="M498.889 205.92C500.209 202.44 501.199 200.21 501.909 197.89C505.629 185.73 509.279 173.55 512.979 161.38C513.459 159.79 513.929 158.14 514.769 156.74C516.099 154.53 518.239 153.8 520.729 154.58C523.289 155.38 524.389 157.3 524.079 159.88C523.829 161.94 523.469 164.04 522.799 165.99C518.069 179.79 513.279 193.58 508.439 207.34C507.749 209.3 506.869 211.23 505.789 213C501.979 219.25 495.059 219.06 491.379 212.66C490.659 211.4 489.979 210.07 489.539 208.7C484.659 193.64 479.719 178.59 475.029 163.46C473.399 158.22 474.519 155.59 477.879 154.63C481.589 153.57 483.679 155.38 485.329 161C489.029 173.6 492.739 186.2 496.469 198.78C497.049 200.73 497.769 202.63 498.889 205.91V205.92Z" fill="#1A1A1A"/>
<path d="M795.61 71.6404C795.61 78.3004 795.64 84.9704 795.59 91.6304C795.58 93.5004 795.45 95.3904 795.15 97.2304C794.7 99.9804 793.17 101.84 790.21 101.94C787.56 102.03 785.84 99.9604 785.79 96.3304C785.6 84.0504 785.53 71.7604 785.41 59.4804C785.38 56.3604 785.28 53.2304 785.31 50.1104C785.36 45.1704 786.92 42.7804 790.06 42.6604C793.22 42.5404 795.14 45.0104 795.21 49.7804C795.32 57.0704 795.24 64.3504 795.24 71.6404H795.61Z" fill="#1A1A1A"/>
<path d="M781.45 31.9805C781.04 30.0305 780.48 28.2405 780.31 26.4105C779.95 22.5405 781.59 19.5305 784.82 17.4505C788.26 15.2305 791.89 15.2505 795.51 17.0005C797.66 18.0405 798.67 19.8105 797.71 22.1205C796.87 24.1405 795.27 24.8605 793.15 23.8005C792.78 23.6205 792.4 23.4105 792 23.3105C788.59 22.5205 786.71 23.3005 786.74 25.6005C786.78 28.5405 788.84 29.4505 791.35 29.5305C793 29.5805 794.66 29.3205 796.32 29.1605C798.27 28.9805 800.24 28.8605 800.58 31.4605C800.91 34.0005 799.55 35.2505 797.1 35.6605C794.44 36.1105 791.81 36.7505 789.17 37.3105C787.14 37.7405 785.12 38.3805 783.07 38.5405C781.63 38.6505 779.56 38.5905 778.8 37.7205C777.32 36.0205 778.29 34.2705 780.18 33.1205C780.68 32.8205 781.07 32.3405 781.46 31.9905L781.45 31.9805Z" fill="#1A1A1A"/>
<path d="M528.22 60.8315C524.82 60.7115 522.22 58.1514 522.19 54.9114C522.16 51.5414 525.39 48.5214 528.74 48.7614C531.82 48.9914 534.43 51.9814 534.34 55.2014C534.25 58.6115 531.7 60.9615 528.22 60.8315Z" fill="#1A1A1A"/>
<path d="M619.569 137.242C619.519 140.422 616.679 143.122 613.429 143.092C610.419 143.062 607.439 140.102 607.359 137.062C607.279 133.852 609.939 131.072 613.209 130.972C616.689 130.862 619.639 133.762 619.579 137.242H619.569Z" fill="#1A1A1A"/>
<path d="M542.849 48.7018C546.369 48.8718 548.869 51.8018 548.569 55.4218C548.299 58.7118 545.689 60.9918 542.289 60.9018C538.729 60.8118 536.299 57.9918 536.569 54.2618C536.809 51.0218 539.599 48.5518 542.839 48.7018H542.849Z" fill="#1A1A1A"/>
<path d="M663.269 29.0709C666.709 29.4109 668.939 32.0609 668.639 35.4409C668.339 38.7809 665.669 41.0509 662.259 40.8509C658.669 40.6409 656.069 37.5809 656.539 34.1009C656.979 30.8509 659.819 28.7309 663.269 29.0709Z" fill="#1A1A1A"/>
<path d="M627.119 143.091C624.089 142.951 621.219 139.961 621.209 136.941C621.209 133.691 623.849 131.051 627.119 131.041C630.519 131.031 633.529 134.081 633.359 137.391C633.209 140.471 630.169 143.241 627.109 143.091H627.119Z" fill="#1A1A1A"/>
<path d="M752.789 122.32C756.009 122.32 758.839 125.02 758.839 128.09C758.839 131.1 755.969 134.08 752.959 134.21C749.679 134.35 746.479 131.2 746.589 127.96C746.699 124.85 749.469 122.32 752.789 122.32Z" fill="#1A1A1A"/>
<path d="M744.689 128.24C744.739 131.36 741.969 134.06 738.649 134.13C735.469 134.2 732.529 131.54 732.369 128.44C732.189 125.09 735.199 122.15 738.719 122.24C741.949 122.32 744.639 125.03 744.689 128.24Z" fill="#1A1A1A"/>
<path d="M534.96 48.2514C531.6 48.2414 529.19 45.8114 529.1 42.3614C529.02 39.0714 531.5 36.3114 534.71 36.1414C537.98 35.9714 541.06 39.0814 540.96 42.4414C540.86 45.7114 538.23 48.2614 534.95 48.2514H534.96Z" fill="#1A1A1A"/>
<path d="M676.619 40.8306C673.279 40.7706 670.529 38.1606 670.479 35.0106C670.429 31.5206 673.379 28.8006 676.999 29.0006C680.489 29.1906 682.769 31.6606 682.649 35.1106C682.529 38.6106 680.119 40.8906 676.619 40.8306Z" fill="#1A1A1A"/>
<path d="M496.259 115.261C496.209 118.511 493.439 121.201 490.179 121.161C486.829 121.121 484.209 118.511 484.209 115.211C484.209 111.881 486.789 109.391 490.249 109.391C493.669 109.391 496.319 111.971 496.269 115.261H496.259Z" fill="#1A1A1A"/>
<path d="M482.269 115.402C482.229 118.732 479.709 121.252 476.349 121.312C472.749 121.382 470.129 118.592 470.329 114.922C470.519 111.502 473.019 109.252 476.499 109.372C479.889 109.492 482.299 112.012 482.269 115.402Z" fill="#1A1A1A"/>
<path d="M668.889 27.5708C665.549 27.5108 662.799 24.9008 662.749 21.7508C662.699 18.2608 665.649 15.5408 669.269 15.7408C672.759 15.9308 675.039 18.4008 674.919 21.8508C674.799 25.3508 672.389 27.6308 668.889 27.5708Z" fill="#1A1A1A"/>
</g>
<defs>
<clipPath id="clip0_360_3493">
<rect width="806.96" height="233.8" fill="white"/>
</clipPath>
</defs>
</svg>
